<svg width="216" height="91" viewBox="0 0 216 91" fill="none" xmlns="http://www.w3.org/2000/svg">
    <path d="M38.8701 78.3926C40.0386 81.2107 41.4477 83.857 43.1317 86.3315C43.9222 86.3659 44.7126 86.4002 45.4687 86.4002C53.1327 86.4002 60.4873 84.3038 66.8454 80.3859C62.4807 78.7019 56.3289 77.7396 49.2491 77.7396C45.9842 77.7396 42.4787 77.9458 38.8701 78.3926Z" fill="#EC008C"></path>
    <path d="M9.17557 40.5881C7.93834 40.8974 6.76984 41.0349 5.70444 41.0349C5.39514 41.0349 5.08583 41.0349 4.81089 41.0006C4.63905 42.4784 4.57031 43.9905 4.57031 45.5027C4.57031 56.4316 8.8319 66.7075 16.5646 74.4402C16.8396 74.7152 17.1489 75.0245 17.4238 75.2994C17.0458 70.9347 17.2176 66.5701 17.8362 62.2397C12.578 58.3562 9.24431 53.476 8.55696 47.9084C8.28202 45.434 8.48822 42.9939 9.17557 40.5881ZM48.4578 4.67398C47.1174 7.6296 45.2272 10.8258 42.8558 14.0907C48.1141 12.4411 53.7504 11.2038 59.696 10.4477C61.7237 10.2072 63.717 10.001 65.7103 9.86349C60.4521 6.90788 54.5752 5.12076 48.4578 4.67398Z" fill="#007236"></path>
    <path d="M55.0571 72.2751C48.3897 72.2751 42.0661 71.5534 36.3611 70.2474C36.9453 73.0655 37.7702 75.815 38.8699 78.4269C42.4785 77.9801 45.9496 77.7739 49.2489 77.7739C56.3287 77.7739 62.4805 78.7362 66.8452 80.4202C69.5602 78.7362 72.1034 76.7429 74.406 74.4403C75.9869 72.8593 77.4304 71.1753 78.702 69.3882C75.059 70.2818 71.2442 71.0035 67.3263 71.4846C63.1678 72.0002 59.0437 72.2751 55.0571 72.2751Z" fill="#312783"></path>
    <path d="M65.7106 9.89786C63.7173 10.0353 61.724 10.2072 59.6963 10.4821C53.7507 11.2382 48.08 12.4754 42.8561 14.1251C40.416 17.4931 37.4604 20.9642 34.0924 24.3666C25.363 33.096 16.015 38.9729 9.21024 40.6225C8.52288 43.0282 8.28231 45.4683 8.59162 47.9084C9.27897 53.476 12.6126 58.3562 17.8709 62.2397C19.5549 51.0359 24.6757 40.3476 33.2332 31.79C43.8872 21.1361 57.9092 15.8091 72.0343 15.8091C72.5841 15.8091 73.134 15.8091 73.7183 15.8435C71.2438 13.5065 68.5631 11.5131 65.7106 9.89786Z" fill="#39B54A"></path>
    <path d="M45.503 4.57086C34.5741 4.57086 24.2982 8.83245 16.5655 16.5652C9.89818 23.2325 5.80843 31.7556 4.81177 41.0005C5.08671 41.0349 5.39602 41.0349 5.70533 41.0349C6.77072 41.0349 7.93922 40.8974 9.17646 40.5881C12.3383 29.6936 25.2261 19.6582 42.8224 14.1251C45.1937 10.8258 47.0839 7.62958 48.4243 4.70833C47.462 4.60523 46.4997 4.57086 45.503 4.57086Z" fill="#0088C7"></path>
    <path d="M17.8708 62.2397C17.2178 66.5356 17.0804 70.9347 17.4584 75.2994C19.8641 77.5676 22.5105 79.5266 25.3286 81.1419C29.2809 80.0077 33.7143 79.0798 38.3883 78.4956C38.5601 78.4612 38.732 78.4612 38.9038 78.4268C37.8384 75.8149 36.9792 73.0998 36.395 70.2473C28.9716 68.529 22.6479 65.7795 17.8708 62.2397Z" fill="#0088C7"></path>
    <path d="M74.8185 29.0063C68.2199 31.7557 58.4939 37.6326 58.9406 38.1137C59.1125 38.2856 60.7621 37.5638 62.8585 36.8421C66.2609 35.6393 70.7631 34.4708 71.6223 37.2545C73.0314 41.7567 69.1135 52.3075 70.3507 53.6823C71.5879 55.057 77.3617 48.5271 82.1388 41.1724C86.9503 33.8178 89.6997 26.2913 88.9092 25.4321C88.7717 25.2946 88.4281 25.1915 87.9469 25.1915C85.7474 25.2259 80.2486 26.738 74.8185 29.0063Z" fill="url(#paint0_linear)"></path>
    <path d="M85.4723 54.2321C84.3038 59.6966 82.0011 64.8517 78.7362 69.3882C77.4646 71.1753 76.0212 72.8594 74.4403 74.4403C72.1376 76.7429 69.5944 78.7362 66.8794 80.4202C60.5214 84.3381 53.1667 86.4346 45.5027 86.4346C44.7123 86.4346 43.9218 86.4002 43.1657 86.3658C36.8421 86.0221 30.759 84.2007 25.3289 81.1419C22.5108 79.5267 19.8645 77.5677 17.4587 75.2995C17.1494 75.0245 16.8745 74.7496 16.5996 74.4403C8.86685 66.7076 4.60526 56.4316 4.60526 45.5027C4.60526 43.9905 4.674 42.4784 4.84583 41.0006C5.8425 31.7557 9.93224 23.2325 16.5996 16.5652C24.3323 8.83248 34.6082 4.57089 45.5371 4.57089C46.5338 4.57089 47.4961 4.60526 48.4927 4.674C54.6101 5.12078 60.487 6.90789 65.7453 9.89787C68.5978 11.5132 71.2784 13.5065 73.7185 15.8435C73.7873 15.9122 73.856 15.9809 73.9591 16.0497C74.131 16.2215 74.3028 16.3934 74.4746 16.5652C74.6121 16.7027 74.7496 16.8401 74.887 16.9776C76.3992 16.2215 77.877 15.6029 79.3548 15.0874C78.0145 13.6096 76.6054 12.2005 75.0589 10.8945C74.5777 10.4821 74.0966 10.1041 73.6154 9.72604C73.5467 9.69167 73.478 9.62293 73.4436 9.58856C69.0789 6.22054 64.3706 3.78044 59.456 2.16516H59.4216H59.3872H59.3529C56.3973 1.20287 53.3042 0.584249 50.108 0.240573C48.5958 0.103103 47.0493 0 45.5027 0C44.8154 0 44.0937 0 43.4063 0.0343676C37.2545 0.343676 31.2058 1.85585 25.6039 4.57089C19.8989 7.35467 14.8812 11.2726 10.7914 16.0497C10.379 16.5652 9.93224 17.0807 9.5542 17.5962C6.49548 21.5141 4.19285 25.8101 2.61194 30.2435L2.57757 30.3122C1.61528 32.9929 0.927926 35.8111 0.481147 38.6979C0.171838 40.8975 0 43.2001 0 45.5027C0 46.2244 0 46.9118 0.0343676 47.5992C0.309309 53.7853 1.85585 59.9028 4.60526 65.5047C7.35467 71.1066 11.2038 76.0555 15.8778 80.0422C16.4277 80.5233 16.9776 80.9701 17.5619 81.4169C17.8368 81.6231 18.1117 81.8293 18.3867 82.0355C18.8335 82.3448 19.2459 82.6541 19.6926 82.9634C23.6793 85.7128 27.9752 87.7405 32.4087 89.0809H32.443C36.5671 90.3181 40.9318 90.9711 45.434 90.9711C45.8464 90.9711 46.2244 90.9711 46.6369 90.9711C46.9118 90.9711 47.1867 90.9367 47.4617 90.9367C53.6135 90.6618 59.6622 89.1496 65.2641 86.4346C67.3605 85.4035 69.3539 84.235 71.2784 82.9291C74.5434 80.6608 77.499 77.9801 80.0766 74.9901C80.5233 74.4746 80.9357 73.9591 81.3482 73.4092C82.826 71.519 84.1319 69.5257 85.2661 67.498C86.4689 65.3328 87.4656 63.0989 88.2904 60.8307V60.7963V60.762C89.5276 57.2908 90.3525 53.6135 90.6961 49.833C89.9401 50.5548 89.1152 51.2765 88.2904 51.9638C87.4312 52.7543 86.4689 53.5104 85.4723 54.2321Z" fill="#312783"></path>
    <path d="M52.4105 58.0469C45.8463 50.2455 51.3451 34.8488 64.6798 23.6793C67.9791 20.9299 71.4158 18.696 74.8526 16.9776C74.7151 16.8402 74.5776 16.7027 74.4402 16.5652C74.2683 16.3934 74.0965 16.2216 73.9247 16.0497C52.1356 19.4177 35.4673 38.2856 35.4673 61.0026C35.4673 64.1644 35.7766 67.2575 36.3952 70.2131C42.1002 71.519 48.4239 72.2408 55.0912 72.2408C59.0778 72.2408 63.202 72.0002 67.3948 71.4503C71.3127 70.9692 75.1275 70.2474 78.7705 69.3539C82.0698 64.8174 84.338 59.6622 85.5065 54.1978C72.7905 63.4427 58.4936 65.2985 52.4105 58.0469Z" fill="#EC008C"></path>
    <path d="M127.057 55.4006H118.019V25.982H127.057V35.9486H136.027V25.982H145.066V55.4006H136.027V43.8188H127.057V55.4006Z" fill="#312783"></path>
    <path d="M149.739 40.6913C149.739 36.464 151.217 32.8554 154.207 29.8998C157.197 26.9098 160.977 25.3977 165.514 25.3977C170.016 25.3977 173.762 26.9098 176.787 29.8998C179.742 32.8554 181.254 36.464 181.254 40.6913C181.254 44.9528 179.777 48.5614 176.787 51.5171C173.831 54.4727 170.051 55.9849 165.514 55.9849C160.977 55.9849 157.197 54.4727 154.207 51.4827C151.217 48.5271 149.739 44.9185 149.739 40.6913ZM160.84 45.7777C162.077 47.0836 163.624 47.7366 165.514 47.7366C167.404 47.7366 168.951 47.0836 170.188 45.7777C171.425 44.403 172.044 42.719 172.044 40.6913C172.044 38.6636 171.425 36.9796 170.188 35.6392C168.985 34.2989 167.439 33.6115 165.514 33.6115C163.624 33.6115 162.043 34.2989 160.84 35.6392C159.603 36.9452 158.984 38.6292 158.984 40.6913C158.984 42.719 159.603 44.403 160.84 45.7777Z" fill="#312783"></path>
    <path d="M216 60.8307H207.511V55.4006H185.894V25.982H194.933V47.6336H203.318V25.982H212.288V47.6336H216V60.8307Z" fill="#312783"></path>
    <path d="M121.627 79.7672C120.665 79.7672 119.977 79.6641 119.496 79.4236V77.1897C120.046 77.4302 120.63 77.5677 121.214 77.5677C121.833 77.5677 122.314 77.3959 122.727 77.0866C123.105 76.7773 123.551 76.1243 124.033 75.0932L118.121 64.4049H120.802L125.27 72.5844L128.981 64.4049H131.525L125.957 76.2617C124.892 78.5987 123.448 79.7672 121.627 79.7672Z" fill="#ED1651"></path>
    <path d="M138.33 79.4923H135.959V64.4049H142.454C144.035 64.4049 145.272 64.8173 146.132 65.6421C147.025 66.4326 147.506 67.498 147.506 68.804C147.506 70.1099 147.059 71.1753 146.132 72.0345C145.238 72.8593 144.035 73.2718 142.454 73.2718H138.33V79.4923ZM138.33 66.5701V71.0722H142.248C143.142 71.0722 143.829 70.866 144.344 70.488C144.86 70.0756 145.101 69.5257 145.101 68.804C145.101 68.0822 144.86 67.5324 144.344 67.1543C143.863 66.7763 143.142 66.5701 142.248 66.5701H138.33Z" fill="#ED1651"></path>
    <path d="M151.87 79.4923H149.361L155.96 64.3018H158.263L164.861 79.4923H162.318L160.668 75.7462H153.52L151.87 79.4923ZM157.094 67.2918L154.345 73.6498H159.878L157.094 67.2918Z" fill="#ED1651"></path>
    <path d="M167.371 79.4579V77.2928C167.542 77.3615 167.817 77.3959 168.161 77.3959C169.226 77.3959 169.914 76.7429 170.292 75.4025C170.636 74.2684 170.842 72.3095 170.91 69.5944L170.979 64.4049H181.049V79.4923H178.678V66.5701H173.213L173.144 69.8006C173.076 73.0656 172.732 75.5057 172.079 77.0866C171.392 78.7362 170.12 79.561 168.264 79.561C167.92 79.561 167.611 79.5267 167.371 79.4579Z" fill="#ED1651"></path>
    <defs>
        <linearGradient id="paint0_linear" x1="58.9318" y1="39.5514" x2="89.0501" y2="39.5514" gradientUnits="userSpaceOnUse">
            <stop stop-color="#FFDD00"></stop>
            <stop offset="1" stop-color="#F7941D"></stop>
        </linearGradient>
    </defs>
</svg>
